<svg width="66" height="59" viewBox="0 0 66 59" fill="none" xmlns="http://www.w3.org/2000/svg">
<g clip-path="url(#clip0_71_657)">
<path d="M23.459 58.9983L0 48.3657V19.1328L23.4382 29.8841L44.8637 19.5334V48.7842L23.459 58.9983ZM1.78894 47.2203L23.4382 57.0338L43.0748 47.6624V22.3763L23.459 31.8545L1.78894 21.9134V47.2203Z" fill="#333333"/>
<path d="M24.3397 30.8711H22.5508V58.0179H24.3397V30.8711Z" fill="#333333"/>
<path d="M43.6325 21.3335L21.4705 11.1639L1.29721 21.3187L0.492188 19.7281L21.4347 9.1875L44.3809 19.7162L43.6325 21.3335Z" fill="#333333"/>
<path d="M11.3866 34.6409H9.59766V24.2932L30.6475 13.6992L31.4555 15.2898L11.3866 25.3882V34.6409Z" fill="#333333"/>
<path d="M50.8523 16.8389L47.1641 13.171L48.4312 11.9128L50.8523 14.3224L56.3264 8.87109L57.5936 10.1293L50.8523 16.8389Z" fill="#2B6DB4"/>
<path d="M52.3816 27.1113C49.3427 27.1229 46.3891 26.1116 44.0005 24.2417L45.1006 22.8381C47.1759 24.4622 49.7417 25.3406 52.3816 25.3308C55.5184 25.3277 58.5258 24.0861 60.7438 21.8785C62.9618 19.6709 64.2094 16.6777 64.2125 13.5558C64.2094 10.4338 62.9618 7.44054 60.7438 5.23297C58.5258 3.02539 55.5184 1.78381 52.3816 1.78067C49.2448 1.78381 46.2374 3.02539 44.0194 5.23297C41.8013 7.44054 40.5538 10.4338 40.5507 13.5558C40.5492 15.1912 40.8925 16.8087 41.5584 18.3038L39.9216 19.0249C39.1532 17.299 38.758 15.4316 38.7617 13.5439C38.7657 9.94992 40.2019 6.50429 42.7553 3.96297C45.3086 1.42166 48.7706 -0.00779135 52.3816 -0.0117188C55.9926 -0.00779135 59.4546 1.42166 62.0079 3.96297C64.5613 6.50429 65.9975 9.94992 66.0015 13.5439C66.0007 17.1399 64.5658 20.5886 62.0121 23.1325C59.4585 25.6763 55.9946 27.1074 52.3816 27.1113Z" fill="#333333"/>
</g>
<defs>
<clipPath id="clip0_71_657">
<rect width="66" height="59" fill="white"/>
</clipPath>
</defs>
</svg>
