<svg width="53" height="53" viewBox="0 0 53 53" fill="none" xmlns="http://www.w3.org/2000/svg">
<g clip-path="url(#clip0_71_675)">
<path d="M21.5101 53.0156C21.0877 53.0168 20.6692 52.9341 20.279 52.7724C19.8888 52.6107 19.5346 52.3731 19.2369 52.0735L11.9737 44.8104L12.5845 44.1996C12.8329 43.9528 13.0298 43.6592 13.1639 43.3358C13.2979 43.0123 13.3664 42.6655 13.3653 42.3154C13.3664 41.9652 13.2979 41.6184 13.1639 41.295C13.0298 40.9715 12.8329 40.6779 12.5845 40.4311C12.3374 40.1833 12.0437 39.9867 11.7204 39.8527C11.397 39.7187 11.0503 39.65 10.7003 39.6504C10.3507 39.6497 10.0043 39.7184 9.6814 39.8524C9.35847 39.9864 9.06532 40.1831 8.81891 40.4311L8.20528 41.0419L0.942132 33.7788C0.642518 33.4811 0.404968 33.1268 0.24325 32.7366C0.0815315 32.3464 -0.00114495 31.928 1.96532e-05 31.5056C-0.0014642 31.0832 0.0810911 30.6647 0.242828 30.2745C0.404565 29.8842 0.64226 29.53 0.942132 29.2325L29.2169 0.957757C29.5144 0.657885 29.8687 0.420154 30.2589 0.258418C30.6491 0.096681 31.0677 0.0141608 31.4901 0.0156447C31.9125 0.0144801 32.3308 0.0971565 32.721 0.258875C33.1112 0.420593 33.4654 0.658143 33.7632 0.957757L41.0263 8.2209L40.4156 8.83457C39.9176 9.33459 39.6378 10.0116 39.6378 10.7174C39.6378 11.4231 39.9176 12.1001 40.4156 12.6001C40.6624 12.8485 40.9559 13.0454 41.2794 13.1794C41.6028 13.3135 41.9496 13.3819 42.2997 13.3809C42.6498 13.3819 42.9967 13.3135 43.3202 13.1794C43.6436 13.0454 43.9372 12.8485 44.1839 12.6001L44.7948 11.9893L52.0579 19.2525C52.3575 19.5502 52.5951 19.9044 52.7568 20.2946C52.9185 20.6848 53.0012 21.1032 53 21.5256C53.0014 21.9485 52.9188 22.3674 52.7571 22.7581C52.5954 23.1488 52.3577 23.5035 52.0579 23.8017L23.7861 52.0735C23.4879 52.3733 23.1332 52.611 22.7425 52.7727C22.3518 52.9345 21.9329 53.017 21.5101 53.0156ZM14.3592 44.7499L20.4585 50.8519C20.5965 50.9901 20.7604 51.0997 20.9409 51.1743C21.1213 51.249 21.3148 51.2872 21.5101 51.287C21.7054 51.2874 21.8988 51.2492 22.0792 51.1745C22.2597 51.0999 22.4237 50.9902 22.5616 50.8519L50.8363 22.5801C51.1152 22.3001 51.2717 21.9208 51.2714 21.5256C51.2716 21.3303 51.2333 21.1369 51.1587 20.9565C51.084 20.776 50.9745 20.6121 50.8363 20.4741L44.7343 14.3748C44.0138 14.8563 43.1662 15.112 42.2997 15.1095C41.7226 15.1108 41.151 14.9977 40.6179 14.7767C40.0848 14.5556 39.6008 14.231 39.194 13.8217V13.8217C38.477 13.1036 38.0304 12.1596 37.9301 11.1498C37.8298 10.1399 38.0819 9.1265 38.6437 8.28139L32.5417 2.18221C32.4042 2.04315 32.2404 1.93281 32.0598 1.85763C31.8793 1.78245 31.6857 1.74392 31.4901 1.74428C31.2945 1.7436 31.1007 1.78198 30.9201 1.85717C30.7395 1.93237 30.5757 2.04289 30.4384 2.18221L2.16658 30.454C2.02727 30.5913 1.91682 30.7551 1.84162 30.9357C1.76642 31.1162 1.72798 31.31 1.72866 31.5056C1.7283 31.7012 1.76686 31.8949 1.84204 32.0754C1.91722 32.2559 2.02753 32.4197 2.16658 32.5572L8.26577 38.6593C8.98596 38.177 9.83357 37.9203 10.7003 37.9217C11.2775 37.9203 11.8491 38.0333 12.3823 38.2544C12.9154 38.4755 13.3993 38.8001 13.806 39.2096C14.2154 39.6164 14.54 40.1004 14.7611 40.6335C14.9822 41.1666 15.0953 41.7382 15.0939 42.3154C15.0936 43.1769 14.8379 44.0191 14.3592 44.7355V44.7499Z" fill="#333333"/>
<path d="M11.3161 26.723L10.0938 27.9453L25.0612 42.9127L26.2835 41.6904L11.3161 26.723Z" fill="#333333"/>
<path d="M23.592 26.562C23.0921 26.5629 22.597 26.4648 22.1352 26.2735C21.6733 26.0821 21.2539 25.8012 20.9011 25.447C20.5471 25.0943 20.2665 24.6749 20.0756 24.213C19.8848 23.7511 19.7874 23.2559 19.7891 22.7561C19.7877 22.2568 19.8853 21.7622 20.0762 21.3009C20.2671 20.8395 20.5474 20.4205 20.9011 20.0681C21.2535 19.7134 21.6728 19.4322 22.1347 19.2408C22.5967 19.0494 23.092 18.9516 23.592 18.9531C24.092 18.9516 24.5873 19.0494 25.0493 19.2408C25.5112 19.4322 25.9306 19.7134 26.283 20.0681V20.0681C26.6367 20.4205 26.9171 20.8395 27.1079 21.3009C27.2988 21.7622 27.3964 22.2568 27.3951 22.7561C27.3968 23.2559 27.2994 23.7511 27.1085 24.213C26.9176 24.6749 26.6371 25.0943 26.283 25.447C25.9302 25.8012 25.5108 26.0821 25.049 26.2735C24.5872 26.4648 24.0919 26.5629 23.592 26.562V26.562ZM23.592 20.6818C23.3195 20.6812 23.0497 20.7347 22.798 20.839C22.5463 20.9434 22.3178 21.0965 22.1256 21.2897C21.9319 21.4815 21.7784 21.7099 21.674 21.9617C21.5696 22.2135 21.5165 22.4836 21.5177 22.7561C21.5162 23.0292 21.5691 23.2998 21.6735 23.5521C21.7778 23.8044 21.9316 24.0333 22.1256 24.2255C22.3178 24.4186 22.5463 24.5718 22.798 24.6762C23.0497 24.7805 23.3195 24.8339 23.592 24.8334C23.8645 24.8339 24.1344 24.7805 24.3861 24.6762C24.6378 24.5718 24.8664 24.4186 25.0586 24.2255C25.2521 24.0329 25.4054 23.8039 25.5097 23.5517C25.6141 23.2995 25.6673 23.0291 25.6664 22.7561C25.667 22.4837 25.6135 22.2138 25.5091 21.9621C25.4048 21.7104 25.2517 21.4819 25.0586 21.2897V21.2897C24.8664 21.0965 24.6378 20.9434 24.3861 20.839C24.1344 20.7347 23.8645 20.6812 23.592 20.6818V20.6818Z" fill="#2B6DB4"/>
<path d="M37.7259 25.732C37.226 25.7332 36.7307 25.6352 36.2688 25.4439C35.8069 25.2525 35.3875 24.9714 35.0349 24.617C34.3222 23.9034 33.9219 22.936 33.9219 21.9275C33.9219 20.9189 34.3222 19.9516 35.0349 19.238C35.7485 18.5253 36.7158 18.125 37.7244 18.125C38.7329 18.125 39.7004 18.5253 40.414 19.238V19.238C41.1267 19.9516 41.5269 20.9189 41.5269 21.9275C41.5269 22.936 41.1267 23.9034 40.414 24.617C40.0617 24.9711 39.6427 25.2519 39.1814 25.4433C38.72 25.6347 38.2254 25.7328 37.7259 25.732V25.732ZM37.7259 19.8546C37.1753 19.8536 36.6468 20.0712 36.2565 20.4596C35.8676 20.8491 35.6491 21.377 35.6491 21.9275C35.6491 22.478 35.8676 23.0059 36.2565 23.3954C36.646 23.7844 37.1739 24.0029 37.7244 24.0029C38.2748 24.0029 38.8029 23.7844 39.1923 23.3954C39.5813 23.0059 39.7998 22.478 39.7998 21.9275C39.7998 21.377 39.5813 20.8491 39.1923 20.4596C38.9997 20.2672 38.7711 20.1147 38.5195 20.0109C38.2678 19.9071 37.9981 19.854 37.7259 19.8546V19.8546Z" fill="#2B6DB4"/>
<path d="M29.8435 13.8563L28.1484 14.1953L31.4747 30.8267L33.1698 30.4877L29.8435 13.8563Z" fill="#2B6DB4"/>
</g>
<defs>
<clipPath id="clip0_71_675">
<rect width="53" height="53" fill="white"/>
</clipPath>
</defs>
</svg>
