<svg width="44" height="51" viewBox="0 0 44 51" fill="none" xmlns="http://www.w3.org/2000/svg">
<g clip-path="url(#clip0_71_670)">
<path d="M22.0018 51.0018L21.6621 50.8532C11.4051 46.3673 4.43696 37.6239 1.51608 25.5747C-0.892515 15.6398 0.287642 7.28793 0.298963 7.21364L0.398052 6.64218L0.964114 6.51644C1.10563 6.48501 15.2459 3.29914 21.6424 0.176105L22.0132 -0.00390625L22.3811 0.176105C28.7776 3.29914 42.9178 6.48501 43.0593 6.51644L43.6254 6.64218L43.7245 7.21364C43.7245 7.29079 44.9159 15.6427 42.5074 25.5747C39.5865 37.6239 32.6183 46.3673 22.3613 50.8532L22.0018 51.0018ZM1.90663 8.06511C1.64341 10.4138 1.32641 17.5428 3.1746 25.1661C5.97095 36.7067 12.308 44.7672 22.0103 49.1303C31.7097 44.7672 38.0468 36.7067 40.8432 25.1661C42.6914 17.5428 42.3744 10.4138 42.1111 8.06511C39.3912 7.43651 28.019 4.71923 22.0159 1.90193C15.9902 4.71923 4.61799 7.43651 1.89806 8.06511H1.90663Z" fill="#333333"/>
<path d="M22.0047 43.9124L21.5886 43.681C14.7194 39.8065 10.0835 33.3947 7.81641 24.6599L9.46083 24.2256C11.5609 32.3232 15.778 38.2835 22.0047 41.9409C33.7392 35.0348 35.7883 21.3455 35.9581 13.7422L37.6563 13.7822C37.478 21.8398 35.259 36.4378 22.4207 43.6782L22.0047 43.9124Z" fill="#333333"/>
<path d="M6.63522 18.1263C6.43737 16.252 6.34288 14.368 6.35219 12.4831V11.8117L6.99177 11.6488C11.1693 10.5916 17.1101 8.94866 21.7094 7.12284L22.0207 7L22.3321 7.12284C24.8369 8.12004 28.0125 9.16868 31.7683 10.2373L31.307 11.886C27.6503 10.8459 24.5284 9.823 22.0207 8.84009C17.6309 10.5545 12.1402 12.1003 8.06171 13.1489C8.07586 14.749 8.17209 16.3548 8.34474 17.9349L6.63522 18.1263Z" fill="#333333"/>
<path d="M20.4134 28.8561L16.6406 25.0473L17.8407 23.8358L20.4134 26.4331L26.1561 20.6328L27.359 21.8443L20.4134 28.8561Z" fill="#2B6DB4"/>
</g>
<defs>
<clipPath id="clip0_71_670">
<rect width="44" height="51" fill="white"/>
</clipPath>
</defs>
</svg>
