<svg width="55" height="55" viewBox="0 0 55 55" fill="none" xmlns="http://www.w3.org/2000/svg">
<g clip-path="url(#clip0_71_664)">
<path d="M25.8047 25.0046L21.7617 20.9343L23.0574 19.6298L25.8047 22.3957L31.944 16.2148L33.2397 17.5193L25.8047 25.0046Z" fill="#2B6DB4"/>
<path d="M27.5 42.8475C21.8579 42.841 16.4486 40.5816 12.459 36.565C8.46941 32.5484 6.22522 27.1026 6.21875 21.4222C6.22603 15.7424 8.47054 10.2974 12.4601 6.28147C16.4496 2.26552 21.8584 0.00652865 27.5 1.60956e-05C29.8867 -0.00293372 32.2567 0.399595 34.5102 1.19065L33.8991 2.93201C31.8357 2.20992 29.6662 1.84277 27.4817 1.84596C22.3261 1.85166 17.3833 3.91588 13.7375 7.58582C10.0916 11.2558 8.0404 16.2318 8.03393 21.4222C8.0396 26.6133 10.0904 31.59 13.7363 35.2607C17.3822 38.9313 22.3256 40.9959 27.4817 41.0016C32.6373 40.9951 37.5797 38.9301 41.225 35.2596C44.8703 31.589 46.9207 26.6127 46.9263 21.4222C46.9241 18.6681 46.3459 15.9454 45.2292 13.4312C44.1124 10.917 42.4822 8.6678 40.4448 6.83001L41.6671 5.45478C43.8969 7.46553 45.681 9.92667 46.903 12.6778C48.1251 15.429 48.7578 18.4085 48.7598 21.4222C48.7534 27.0989 46.5122 32.5414 42.5272 36.5574C38.5422 40.5734 33.1385 42.8353 27.5 42.8475Z" fill="#333333"/>
<path d="M15.8937 55.0018L9.90721 46.8581L0 45.6551L6.06901 34.9609L7.66113 35.8747L2.96116 44.1568L10.9095 45.1198L15.6951 51.6298L19.4844 44.9475L21.0765 45.8643L15.8937 55.0018Z" fill="#333333"/>
<path d="M39.1047 55.0018L33.9219 45.8643L35.514 44.9475L39.3033 51.6298L44.0888 45.1198L52.0372 44.1568L47.3373 35.8747L48.9294 34.9609L54.9984 45.6551L45.0912 46.8581L39.1047 55.0018Z" fill="#333333"/>
<path d="M27.501 36.5853C24.1401 36.5974 20.8738 35.4655 18.2324 33.3734L19.3632 31.9212C21.6828 33.757 24.5504 34.7501 27.501 34.7394C31.0069 34.7345 34.3679 33.3299 36.8467 30.8338C39.3255 28.3376 40.7198 24.9536 40.7239 21.4239C40.7198 17.8945 39.3254 14.5108 36.8465 12.0152C34.3676 9.5195 31.0067 8.11564 27.501 8.11157C23.995 8.11564 20.6338 9.5194 18.1544 12.015C15.675 14.5106 14.2798 17.8942 14.275 21.4239C14.2708 23.2771 14.654 25.1105 15.3996 26.8049L13.725 27.5525C12.8741 25.6232 12.4367 23.5349 12.4414 21.4239C12.4463 17.4047 14.0346 13.5515 16.8579 10.7097C19.6811 7.86793 23.5087 6.2697 27.501 6.26562C31.4929 6.2697 35.3202 7.86803 38.1429 10.7099C40.9656 13.5517 42.5533 17.405 42.5574 21.4239C42.5533 25.4432 40.9659 29.2967 38.1432 32.1391C35.3205 34.9814 31.4932 36.5804 27.501 36.5853Z" fill="#333333"/>
</g>
<defs>
<clipPath id="clip0_71_664">
<rect width="55" height="55" fill="white"/>
</clipPath>
</defs>
</svg>
