<svg width="48" height="48" viewBox="12 12 24 24" xmlns="http://www.w3.org/2000/svg">
<path fill-rule="evenodd" clip-rule="evenodd" d="M17 17V18.2941H17.7368V17H17ZM16 15C15.4477 15 15 15.4477 15 16V19.2941C15 19.8464 15.4477 20.2941 16 20.2941H18.7368C19.2891 20.2941 19.7368 19.8464 19.7368 19.2941V16C19.7368 15.4477 19.2891 15 18.7368 15H16ZM23.6313 17V18.2941H24.3682V17H23.6313ZM22.6313 15C22.0791 15 21.6313 15.4477 21.6313 16V19.2941C21.6313 19.8464 22.0791 20.2941 22.6313 20.2941H25.3682C25.9205 20.2941 26.3682 19.8464 26.3682 19.2941V16C26.3682 15.4477 25.9205 15 25.3682 15H22.6313ZM30.2632 18.2941V17H31V18.2941H30.2632ZM28.2632 16C28.2632 15.4477 28.7109 15 29.2632 15H32C32.5523 15 33 15.4477 33 16V19.2941C33 19.8464 32.5523 20.2941 32 20.2941H29.2632C28.7109 20.2941 28.2632 19.8464 28.2632 19.2941V16Z" fill="#222222"/>
<path fill-rule="evenodd" clip-rule="evenodd" d="M17 23.3525V24.6467H17.7368V23.3525H17ZM16 21.3525C15.4477 21.3525 15 21.8003 15 22.3525V25.6467C15 26.1989 15.4477 26.6467 16 26.6467H18.7368C19.2891 26.6467 19.7368 26.1989 19.7368 25.6467V22.3525C19.7368 21.8003 19.2891 21.3525 18.7368 21.3525H16ZM23.6313 23.3525V24.6467H24.3682V23.3525H23.6313ZM22.6313 21.3525C22.0791 21.3525 21.6313 21.8003 21.6313 22.3525V25.6467C21.6313 26.1989 22.0791 26.6467 22.6313 26.6467H25.3682C25.9205 26.6467 26.3682 26.1989 26.3682 25.6467V22.3525C26.3682 21.8003 25.9205 21.3525 25.3682 21.3525H22.6313ZM30.2632 24.6467V23.3525H31V24.6467H30.2632ZM28.2632 22.3525C28.2632 21.8003 28.7109 21.3525 29.2632 21.3525H32C32.5523 21.3525 33 21.8003 33 22.3525V25.6467C33 26.1989 32.5523 26.6467 32 26.6467H29.2632C28.7109 26.6467 28.2632 26.1989 28.2632 25.6467V22.3525Z" fill="#222222"/>
<path fill-rule="evenodd" clip-rule="evenodd" d="M17 29.7061V31.0002H17.7368V29.7061H17ZM16 27.7061C15.4477 27.7061 15 28.1538 15 28.7061V32.0002C15 32.5525 15.4477 33.0002 16 33.0002H18.7368C19.2891 33.0002 19.7368 32.5525 19.7368 32.0002V28.7061C19.7368 28.1538 19.2891 27.7061 18.7368 27.7061H16ZM23.6313 29.7061V31.0002H24.3682V29.7061H23.6313ZM22.6313 27.7061C22.0791 27.7061 21.6313 28.1538 21.6313 28.7061V32.0002C21.6313 32.5525 22.0791 33.0002 22.6313 33.0002H25.3682C25.9205 33.0002 26.3682 32.5525 26.3682 32.0002V28.7061C26.3682 28.1538 25.9205 27.7061 25.3682 27.7061H22.6313ZM30.2632 31.0002V29.7061H31V31.0002H30.2632ZM28.2632 28.7061C28.2632 28.1538 28.7109 27.7061 29.2632 27.7061H32C32.5523 27.7061 33 28.1538 33 28.7061V32.0002C33 32.5525 32.5523 33.0002 32 33.0002H29.2632C28.7109 33.0002 28.2632 32.5525 28.2632 32.0002V28.7061Z" fill="#222222"/>
</svg>
