<svg viewBox="0 0 48 48" fill="none" xmlns="http://www.w3.org/2000/svg">
<path fill-rule="evenodd" clip-rule="evenodd" d="M23.3512 17.2274C21.2205 15.2416 17.806 17.2129 18.4605 20.051C18.5729 20.5385 18.2892 21.0299 17.8108 21.1763C15.0257 22.0286 15.0257 25.9713 17.8108 26.8236C18.2892 26.97 18.5729 27.4614 18.4605 27.9489C17.806 30.787 21.2205 32.7584 23.3512 30.7725C23.7171 30.4314 24.2846 30.4314 24.6505 30.7725C26.7811 32.7584 30.1957 30.787 29.5412 27.9489C29.4288 27.4614 29.7125 26.97 30.1909 26.8236C32.976 25.9713 32.976 22.0286 30.1909 21.1763C29.7125 21.0299 29.4288 20.5385 29.5412 20.051C30.1957 17.2129 26.7811 15.2416 24.6505 17.2274C24.2846 17.5685 23.7171 17.5685 23.3512 17.2274ZM20.4093 19.6016C20.1981 18.6858 21.3 18.0496 21.9875 18.6905C23.1216 19.7475 24.8801 19.7475 26.0142 18.6905C26.7017 18.0496 27.8035 18.6858 27.5923 19.6016C27.244 21.1123 28.1232 22.6352 29.6057 23.0888C30.5044 23.3638 30.5044 24.6361 29.6057 24.9111C28.1232 25.3648 27.244 26.8876 27.5923 28.3983C27.8035 29.3141 26.7017 29.9503 26.0142 29.3095C24.8801 28.2524 23.1216 28.2524 21.9875 29.3095C21.3 29.9503 20.1981 29.3141 20.4093 28.3983C20.7577 26.8876 19.8785 25.3648 18.396 24.9111C17.4973 24.6361 17.4973 23.3638 18.396 23.0888C19.8785 22.6352 20.7577 21.1123 20.4093 19.6016ZM24.8669 23.5C25.143 23.9782 24.9791 24.5898 24.5008 24.866C24.0225 25.1421 23.411 24.9782 23.1348 24.5C22.8587 24.0217 23.0225 23.4101 23.5008 23.1339C23.9791 22.8578 24.5907 23.0217 24.8669 23.5ZM26.5989 22.5C27.4273 23.9348 26.9357 25.7696 25.5008 26.598C24.066 27.4265 22.2312 26.9348 21.4028 25.5C20.5743 24.0651 21.066 22.2303 22.5008 21.4019C23.9357 20.5735 25.7705 21.0651 26.5989 22.5Z" fill="#222222"/>
</svg>
