<svg viewBox="12 12 24 24" xmlns="http://www.w3.org/2000/svg"><path d="M15 18C15 17.4477 15.4477 17 16 17H19C19.4436 17 19.8342 17.2923 19.9594 17.7178L22.2682 25.5H29.2192L30.2192 21.5H24C23.4477 21.5 23 21.0523 23 20.5C23 19.9477 23.4477 19.5 24 19.5H31.5C31.8079 19.5 32.0987 19.6419 32.2882 19.8846C32.4777 20.1273 32.5468 20.4438 32.4701 20.7425L30.9701 26.7425C30.8589 27.1877 30.4589 27.5 30 27.5H21.5C21.0564 27.5 20.6658 27.2077 20.5406 26.7822L18.2518 19H16C15.4477 19 15 18.5523 15 18ZM23 30C23 31.1046 22.1046 32 21 32C19.8954 32 19 31.1046 19 30C19 28.8954 19.8954 28 21 28C22.1046 28 23 28.8954 23 30ZM30 32C31.1046 32 32 31.1046 32 30C32 28.8954 31.1046 28 30 28C28.8954 28 28 28.8954 28 30C28 31.1046 28.8954 32 30 32Z" /></svg>
