<svg viewBox="0 0 48 48" fill="none" xmlns="http://www.w3.org/2000/svg">
<path fill-rule="evenodd" clip-rule="evenodd" d="M27.0002 21C27.0002 22.6569 25.6571 24 24.0002 24C22.3434 24 21.0002 22.6569 21.0002 21C21.0002 19.3431 22.3434 18 24.0002 18C25.6571 18 27.0002 19.3431 27.0002 21ZM29.0002 21C29.0002 23.7614 26.7617 26 24.0002 26C21.2388 26 19.0002 23.7614 19.0002 21C19.0002 18.2386 21.2388 16 24.0002 16C26.7617 16 29.0002 18.2386 29.0002 21ZM19.0247 26.2903C19.163 26.1835 19.3306 26.1177 19.5052 26.1118C20.0163 26.0945 20.2758 26.2136 20.4754 26.4393C20.8606 26.8748 20.6075 27.5818 20.1544 27.9462C19.3216 28.616 18.6776 29.4973 18.3063 30.4998H29.6933C29.322 29.4975 28.6783 28.6164 27.8457 27.9466C27.3926 27.5822 27.1396 26.875 27.5249 26.4395C27.7245 26.2137 27.984 26.0947 28.495 26.1121C28.6695 26.1181 28.837 26.1839 28.9752 26.2906C30.5965 27.5427 31.7154 29.3928 31.9865 31.502C32.0569 32.0498 31.6024 32.4998 31.0501 32.4998H16.9494C16.3972 32.4998 15.9427 32.0498 16.0131 31.502C16.2841 29.3927 17.4032 27.5424 19.0247 26.2903Z" fill="#222222"/>
</svg>
